<?xml version="1.0" standalone="no"?>
<!DOCTYPE svg PUBLIC "-//W3C//DTD SVG 20010904//EN"
 "http://www.w3.org/TR/2001/REC-SVG-20010904/DTD/svg10.dtd">
<svg version="1.0" xmlns="http://www.w3.org/2000/svg"
 width="357.000000pt" height="400.000000pt" viewBox="0 0 357.000000 400.000000"
 preserveAspectRatio="xMidYMid meet">

<g transform="translate(0.000000,400.000000) scale(0.100000,-0.100000)"
fill="#000000" stroke="none">
<path d="M910 3803 c-69 -24 -126 -68 -149 -115 -13 -28 -35 -51 -60 -65 -51
-29 -91 -107 -91 -177 0 -96 61 -185 136 -201 26 -5 25 -4 -7 10 -45 20 -63
55 -47 90 6 14 14 25 17 25 3 0 26 -14 50 -30 42 -29 61 -36 61 -25 0 14 -35
73 -57 97 l-25 26 36 17 c20 10 42 25 49 34 10 13 32 16 115 16 56 0 98 -1 92
-3 -5 -2 -10 -8 -10 -12 0 -13 89 33 90 46 0 6 18 24 41 39 42 30 59 53 59 80
0 14 -8 16 -45 13 -25 -2 -45 -1 -45 1 0 2 5 21 12 42 13 46 0 80 -39 98 -34
16 -130 13 -183 -6z"/>
<path d="M1005 3459 c-4 -6 -4 -13 -1 -16 3 -4 6 -1 6 5 0 7 5 12 10 12 6 0 9
-3 9 -7 -1 -5 -1 -14 0 -21 2 -20 21 -3 21 19 0 21 -34 27 -45 8z"/>
<path d="M2623 2979 c-17 -5 -41 -21 -53 -36 -11 -15 -31 -28 -43 -30 -29 -4
-54 -36 -68 -86 -9 -33 -8 -57 5 -116 9 -40 20 -80 25 -89 6 -11 -2 -25 -30
-52 -22 -21 -39 -46 -39 -59 0 -12 -7 -24 -16 -28 -8 -3 -13 -12 -10 -20 4 -9
1 -13 -6 -10 -9 2 -12 21 -10 59 3 37 -2 66 -12 86 -20 39 -71 82 -106 89 -22
4 -30 12 -34 39 -12 61 -72 81 -133 44 -58 -35 -84 -115 -58 -176 9 -21 13
-50 10 -64 -8 -35 29 -89 82 -118 43 -24 108 -41 186 -49 40 -4 47 -8 41 -22
-28 -63 2 -157 65 -198 37 -25 121 -33 121 -11 0 21 -53 68 -76 68 -12 0 -33
9 -48 21 -31 24 -36 77 -8 102 15 13 19 14 36 1 31 -22 73 -18 91 10 11 16 22
22 39 19 26 -5 56 19 56 47 0 21 21 32 41 19 31 -19 76 -10 103 21 l25 31 15
-23 c8 -13 20 -35 27 -50 15 -34 35 -27 54 19 28 66 15 122 -40 173 -23 22
-35 25 -93 24 -37 0 -91 -5 -119 -11 -29 -5 -53 -6 -53 -2 0 4 16 11 36 15 71
13 125 97 111 171 -4 20 2 32 24 50 78 66 -26 173 -138 142z"/>
<path d="M1151 2514 c0 -11 3 -14 6 -6 3 7 2 16 -1 19 -3 4 -6 -2 -5 -13z"/>
<path d="M1161 2474 c0 -11 3 -14 6 -6 3 7 2 16 -1 19 -3 4 -6 -2 -5 -13z"/>
<path d="M1171 2434 c0 -11 3 -14 6 -6 3 7 2 16 -1 19 -3 4 -6 -2 -5 -13z"/>
<path d="M1181 2394 c0 -11 3 -14 6 -6 3 7 2 16 -1 19 -3 4 -6 -2 -5 -13z"/>
<path d="M1191 2354 c0 -11 3 -14 6 -6 3 7 2 16 -1 19 -3 4 -6 -2 -5 -13z"/>
<path d="M2707 2333 c-6 -12 12 -73 22 -73 18 0 21 33 6 56 -16 26 -21 28 -28
17z"/>
<path d="M2415 2299 c-11 -17 -2 -18 19 -3 17 12 17 14 4 14 -9 0 -20 -5 -23
-11z"/>
<path d="M2512 2301 c-9 -5 -10 -15 -3 -32 l9 -24 7 28 c8 32 5 39 -13 28z"/>
<path d="M581 2219 c-17 -45 -30 -83 -28 -85 2 -2 18 33 36 77 17 45 30 83 28
85 -2 2 -18 -33 -36 -77z"/>
<path d="M892 2195 c0 -16 2 -22 5 -12 2 9 2 23 0 30 -3 6 -5 -1 -5 -18z"/>
<path d="M910 2195 c0 -15 6 -25 14 -25 8 0 14 10 14 25 0 15 -6 25 -14 25 -8
0 -14 -10 -14 -25z"/>
<path d="M953 2195 c0 -21 4 -25 28 -25 24 0 29 4 29 25 0 21 -5 25 -29 25
-24 0 -28 -4 -28 -25z"/>
<path d="M2753 2213 c-49 -5 -57 -24 -19 -49 35 -22 67 -14 89 24 l19 32 -24
-2 c-12 -1 -42 -3 -65 -5z"/>
<path d="M2483 2074 c-24 -12 -41 -33 -62 -78 -16 -33 -32 -72 -35 -86 l-5
-26 179 -25 c99 -14 180 -25 180 -24 0 0 -4 15 -9 33 -5 17 -8 32 -7 32 2 0
20 -7 40 -15 58 -24 138 -6 209 47 17 13 17 15 -7 37 -20 18 -28 21 -44 12
-12 -6 -45 -11 -75 -11 -49 0 -60 4 -103 40 -26 22 -62 46 -78 54 -30 15 -31
15 -34 -10 -4 -33 -22 -39 -66 -20 -25 10 -36 21 -36 35 0 25 -5 25 -47 5z"/>
<path d="M1752 403 c-89 -43 -80 -170 14 -209 100 -42 190 67 138 167 -15 30
-66 59 -101 59 -10 0 -33 -8 -51 -17z"/>
<path d="M3205 410 c-64 -26 -92 -110 -55 -168 39 -63 136 -76 184 -23 81 89
-18 237 -129 191z"/>
<path d="M375 260 c-4 -6 -4 -24 0 -40 5 -25 12 -30 48 -35 23 -3 103 -5 177
-3 l135 3 -73 24 c-48 15 -84 21 -105 17 -28 -6 -30 -5 -13 7 17 13 16 14 -12
9 -25 -3 -32 -1 -32 12 0 13 -11 16 -59 16 -33 0 -63 -5 -66 -10z"/>
<path d="M930 231 l0 -40 53 -6 c28 -3 111 -5 182 -3 l130 3 -74 23 c-47 15
-86 22 -105 18 -22 -4 -27 -3 -16 4 12 8 10 10 -10 10 -18 0 -21 3 -12 9 21
13 -10 21 -84 21 l-64 0 0 -39z"/>
</g>
</svg>
