<?xml version="1.0" encoding="iso-8859-1"?>
<!-- Generator: Adobe Illustrator 19.0.0, SVG Export Plug-In . SVG Version: 6.00 Build 0)  -->
<svg version="1.1" id="Capa_1" xmlns="http://www.w3.org/2000/svg" xmlns:xlink="http://www.w3.org/1999/xlink" x="0px" y="0px"
	 viewBox="0 0 460 460" style="enable-background:new 0 0 460 460;" xml:space="preserve">
<g id="XMLID_1058_">
	<path id="XMLID_1059_" style="fill:#78B9EB;" d="M90,420v-70h140v-40h-90c0-27.614-22.386-50-50-50V90c27.614,0,50-22.386,50-50h90
		V0H50v460h180v-40H90z"/>
	<rect id="XMLID_1060_" x="230" y="420" style="fill:#3D9AE2;" width="180" height="40"/>
	<path id="XMLID_1061_" style="fill:#3D9AE2;" d="M230,0v40h90c0,27.614,22.386,50,50,50v170c-27.614,0-50,22.386-50,50h-90v40h180
		V0H230z"/>
	<rect id="XMLID_1062_" x="90" y="350" style="fill:#FFF5CC;" width="320" height="70"/>
	<path id="XMLID_1063_" style="fill:#B3D8F4;" d="M320,310c0-27.614,22.386-50,50-50V90c-27.614,0-50-22.386-50-50h-90v270H320z"/>
	<path id="XMLID_1064_" style="fill:#D1E7F8;" d="M90,90v170c27.614,0,50,22.386,50,50h90V40h-90C140,67.614,117.614,90,90,90z"/>
</g>
<g>
</g>
<g>
</g>
<g>
</g>
<g>
</g>
<g>
</g>
<g>
</g>
<g>
</g>
<g>
</g>
<g>
</g>
<g>
</g>
<g>
</g>
<g>
</g>
<g>
</g>
<g>
</g>
<g>
</g>
</svg>
